<?xml version="1.0" encoding="utf-8"?>
<!-- Generator: Adobe Illustrator 22.0.1, SVG Export Plug-In . SVG Version: 6.00 Build 0)  -->
<svg version="1.1" id="Laag_1" xmlns="http://www.w3.org/2000/svg" xmlns:xlink="http://www.w3.org/1999/xlink" x="0px" y="0px"
	 viewBox="0 0 48 48" width="19" height="19" style="enable-background:new 0 0 48 48;" xml:space="preserve">
<style type="text/css">
	.st0{fill:#1D70B7;}
	.st1{opacity:0.37;}
	.st2{fill:#C6C6C5;}
	.st3{fill:#FFFFFF;}
	.st4{opacity:0.17;}
	.st5{fill:none;}
	.st6{fill:#9C9B9B;}
</style>
<g>
	<circle class="st0" cx="24" cy="24" r="24"/>
	<g class="st1">
		<path class="st2" d="M24.8,13.8L24,13.6l-10,2v11l0,0c0,0,0,3.2,2.8,6.8l6.8,5.7l3.7-1.6l4.1-4.1l1.9-3.7L34,25v-8.8"/>
	</g>
	<g>
		<g>
			<path class="st3" d="M23.7,44.8l-0.4-0.2c-3.6-1.8-7-4.2-9.3-6.7l0.8-1.6c2.1,2.3,5.7,5,9,6.6c2.9-1.2,5.4-2.8,7.4-4.6
				c1.7-1.6,3.1-3.4,4.1-5.4c1.4-2.8,1.7-5.3,1.7-6.1V12.2L26.1,10l0.7-1.6l12,2.4v16c0,1.1-0.4,3.9-1.9,6.9
				c-1.1,2.2-2.6,4.1-4.5,5.9c-2.2,2.1-5,3.8-8.2,5.1L23.7,44.8z"/>
		</g>
	</g>
	<g>
		<g>
			<path class="st3" d="M23.8,39.9l-0.4-0.2c-3.1-1.5-5.8-3.7-7.6-5.9l0.8-1.8c1.5,2,4.5,4.6,7.2,6c2-0.9,3.7-1.9,5.1-3.2
				c1.2-1.1,2.2-2.4,2.9-3.8c1-2,1.2-3.8,1.2-4.3V16.3l-9-1.8l0.7-1.6l10,2v11.7c0,0.9-0.3,2.9-1.4,5.1c-0.8,1.6-1.9,3-3.3,4.3
				c-1.6,1.5-3.7,2.8-6,3.7L23.8,39.9z"/>
		</g>
	</g>
	<g>
		<path class="st3" d="M14.9,37.7c-5.1-5.5-5-10.8-5-10.8l0,0V11.3L24,8.5l2.7,0.5l-0.1,0.4L24,8.9l-13.6,2.7l0,15.2
			c0,0.1-0.1,5.2,4.9,10.5L14.9,37.7z"/>
	</g>
	<g>
		<path class="st3" d="M16.6,33.6c-2.9-3.6-2.8-6.9-2.8-6.9l0,0V15.5l10.2-2l0.9,0.2L24.8,14L24,13.8l-9.8,2l0,10.9
			c0,0,0,3.1,2.7,6.6L16.6,33.6z"/>
	</g>
	<g class="st4">
		<path class="st5" d="M30,0.8c-1.9-0.5-3.9-0.8-6-0.8c-13.2,0-24,10.7-24,23.9c0,8.6,4.5,16.1,11.3,20.3L30,0.8z"/>
		<path class="st6" d="M24,48c13.2,0,24-10.7,24-24C48,12.9,40.3,3.5,30,0.8L11.3,44.3C15,46.6,19.3,48,24,48z"/>
	</g>
</g>
</svg>
